<mxfile host="app.diagrams.net" agent="Mozilla/5.0 (Windows NT 10.0; Win64; x64) AppleWebKit/537.36 (KHTML, like Gecko) Chrome/131.0.0.0 Safari/537.36" version="24.8.6">
  <diagram name="Seite-1" id="oti5SzdAhkJT7RVSZr4E">
    <mxGraphModel dx="2301" dy="881" grid="1" gridSize="10" guides="1" tooltips="1" connect="1" arrows="1" fold="1" page="1" pageScale="1" pageWidth="1654" pageHeight="1169" math="0" shadow="0">
      <root>
        <mxCell id="0" />
        <mxCell id="1" parent="0" />
        <mxCell id="y9RaWsFI6EFHlhMd36S--156" value="" style="group" vertex="1" connectable="0" parent="1">
          <mxGeometry x="1170" y="680" width="260" height="350" as="geometry" />
        </mxCell>
        <mxCell id="y9RaWsFI6EFHlhMd36S--125" value="Objekt: Roboter" style="rounded=0;whiteSpace=wrap;html=1;fillColor=#F19C99;strokeColor=#b85450;fontSize=14;" vertex="1" parent="y9RaWsFI6EFHlhMd36S--156">
          <mxGeometry x="10" width="240" height="40" as="geometry" />
        </mxCell>
        <mxCell id="y9RaWsFI6EFHlhMd36S--126" value="" style="rounded=0;whiteSpace=wrap;html=1;fillColor=#f8cecc;strokeColor=#b85450;" vertex="1" parent="y9RaWsFI6EFHlhMd36S--156">
          <mxGeometry x="10" y="40" width="240" height="240" as="geometry" />
        </mxCell>
        <mxCell id="y9RaWsFI6EFHlhMd36S--127" value="Steuerungsvariablen" style="text;html=1;align=left;verticalAlign=middle;whiteSpace=wrap;rounded=0;fontStyle=4" vertex="1" parent="y9RaWsFI6EFHlhMd36S--156">
          <mxGeometry x="20" y="40" width="120" height="30" as="geometry" />
        </mxCell>
        <mxCell id="y9RaWsFI6EFHlhMd36S--128" style="edgeStyle=orthogonalEdgeStyle;rounded=0;orthogonalLoop=1;jettySize=auto;html=1;endArrow=none;endFill=0;strokeWidth=2;" edge="1" parent="y9RaWsFI6EFHlhMd36S--156" source="y9RaWsFI6EFHlhMd36S--129">
          <mxGeometry relative="1" as="geometry">
            <mxPoint x="260" y="80" as="targetPoint" />
          </mxGeometry>
        </mxCell>
        <mxCell id="y9RaWsFI6EFHlhMd36S--129" value="" style="rounded=0;whiteSpace=wrap;html=1;fillColor=none;strokeColor=none;" vertex="1" parent="y9RaWsFI6EFHlhMd36S--156">
          <mxGeometry x="20" y="70" width="220" height="20" as="geometry" />
        </mxCell>
        <mxCell id="y9RaWsFI6EFHlhMd36S--130" value="" style="endArrow=none;html=1;rounded=0;strokeWidth=2;" edge="1" parent="y9RaWsFI6EFHlhMd36S--156" source="y9RaWsFI6EFHlhMd36S--129">
          <mxGeometry width="50" height="50" relative="1" as="geometry">
            <mxPoint x="60" y="140" as="sourcePoint" />
            <mxPoint y="80" as="targetPoint" />
          </mxGeometry>
        </mxCell>
        <mxCell id="y9RaWsFI6EFHlhMd36S--131" value="bReset" style="text;html=1;align=left;verticalAlign=middle;whiteSpace=wrap;rounded=0;fontStyle=0;fontSize=10;" vertex="1" parent="y9RaWsFI6EFHlhMd36S--156">
          <mxGeometry x="24" y="75" width="76" height="10" as="geometry" />
        </mxCell>
        <mxCell id="y9RaWsFI6EFHlhMd36S--132" value="iErrorID" style="text;html=1;align=left;verticalAlign=middle;whiteSpace=wrap;rounded=0;fontStyle=0;fontSize=10;" vertex="1" parent="y9RaWsFI6EFHlhMd36S--156">
          <mxGeometry x="195" y="75" width="45" height="10" as="geometry" />
        </mxCell>
        <mxCell id="y9RaWsFI6EFHlhMd36S--133" value="Betriebsvariablen" style="text;html=1;align=left;verticalAlign=middle;whiteSpace=wrap;rounded=0;fontStyle=4" vertex="1" parent="y9RaWsFI6EFHlhMd36S--156">
          <mxGeometry x="20" y="119" width="120" height="30" as="geometry" />
        </mxCell>
        <mxCell id="y9RaWsFI6EFHlhMd36S--134" value="" style="rounded=0;whiteSpace=wrap;html=1;fillColor=none;strokeColor=none;" vertex="1" parent="y9RaWsFI6EFHlhMd36S--156">
          <mxGeometry x="20" y="149" width="220" height="20" as="geometry" />
        </mxCell>
        <mxCell id="y9RaWsFI6EFHlhMd36S--135" value="" style="endArrow=none;html=1;rounded=0;strokeWidth=2;" edge="1" parent="y9RaWsFI6EFHlhMd36S--156" source="y9RaWsFI6EFHlhMd36S--134">
          <mxGeometry width="50" height="50" relative="1" as="geometry">
            <mxPoint x="60" y="219" as="sourcePoint" />
            <mxPoint y="159" as="targetPoint" />
          </mxGeometry>
        </mxCell>
        <mxCell id="y9RaWsFI6EFHlhMd36S--136" value="eSysCommand" style="text;html=1;align=left;verticalAlign=middle;whiteSpace=wrap;rounded=0;fontStyle=0;fontSize=10;" vertex="1" parent="y9RaWsFI6EFHlhMd36S--156">
          <mxGeometry x="24" y="154" width="76" height="10" as="geometry" />
        </mxCell>
        <mxCell id="y9RaWsFI6EFHlhMd36S--137" value="" style="rounded=0;whiteSpace=wrap;html=1;fillColor=none;strokeColor=none;" vertex="1" parent="y9RaWsFI6EFHlhMd36S--156">
          <mxGeometry x="20" y="169" width="220" height="20" as="geometry" />
        </mxCell>
        <mxCell id="y9RaWsFI6EFHlhMd36S--138" value="" style="endArrow=none;html=1;rounded=0;strokeWidth=2;" edge="1" parent="y9RaWsFI6EFHlhMd36S--156" source="y9RaWsFI6EFHlhMd36S--137">
          <mxGeometry width="50" height="50" relative="1" as="geometry">
            <mxPoint x="60" y="239" as="sourcePoint" />
            <mxPoint y="179" as="targetPoint" />
          </mxGeometry>
        </mxCell>
        <mxCell id="y9RaWsFI6EFHlhMd36S--139" value="eSysState" style="text;html=1;align=left;verticalAlign=middle;whiteSpace=wrap;rounded=0;fontStyle=0;fontSize=10;" vertex="1" parent="y9RaWsFI6EFHlhMd36S--156">
          <mxGeometry x="24" y="174" width="76" height="10" as="geometry" />
        </mxCell>
        <mxCell id="y9RaWsFI6EFHlhMd36S--140" value="" style="rounded=0;whiteSpace=wrap;html=1;fillColor=none;strokeColor=none;" vertex="1" parent="y9RaWsFI6EFHlhMd36S--156">
          <mxGeometry x="20" y="189" width="220" height="20" as="geometry" />
        </mxCell>
        <mxCell id="y9RaWsFI6EFHlhMd36S--141" value="" style="endArrow=none;html=1;rounded=0;strokeWidth=2;" edge="1" parent="y9RaWsFI6EFHlhMd36S--156" source="y9RaWsFI6EFHlhMd36S--140">
          <mxGeometry width="50" height="50" relative="1" as="geometry">
            <mxPoint x="60" y="259" as="sourcePoint" />
            <mxPoint y="199" as="targetPoint" />
          </mxGeometry>
        </mxCell>
        <mxCell id="y9RaWsFI6EFHlhMd36S--142" value="eSkillCommand" style="text;html=1;align=left;verticalAlign=middle;whiteSpace=wrap;rounded=0;fontStyle=0;fontSize=10;" vertex="1" parent="y9RaWsFI6EFHlhMd36S--156">
          <mxGeometry x="24" y="194" width="76" height="10" as="geometry" />
        </mxCell>
        <mxCell id="y9RaWsFI6EFHlhMd36S--143" value="Prozessvariablen" style="text;html=1;align=left;verticalAlign=middle;whiteSpace=wrap;rounded=0;fontStyle=4" vertex="1" parent="y9RaWsFI6EFHlhMd36S--156">
          <mxGeometry x="20" y="220" width="120" height="30" as="geometry" />
        </mxCell>
        <mxCell id="y9RaWsFI6EFHlhMd36S--144" value="" style="rounded=0;whiteSpace=wrap;html=1;fillColor=none;strokeColor=none;" vertex="1" parent="y9RaWsFI6EFHlhMd36S--156">
          <mxGeometry x="20" y="250" width="220" height="20" as="geometry" />
        </mxCell>
        <mxCell id="y9RaWsFI6EFHlhMd36S--145" value="" style="endArrow=none;html=1;rounded=0;strokeWidth=2;" edge="1" parent="y9RaWsFI6EFHlhMd36S--156" source="y9RaWsFI6EFHlhMd36S--144">
          <mxGeometry width="50" height="50" relative="1" as="geometry">
            <mxPoint x="60" y="320" as="sourcePoint" />
            <mxPoint y="260" as="targetPoint" />
          </mxGeometry>
        </mxCell>
        <mxCell id="y9RaWsFI6EFHlhMd36S--146" value="" style="rounded=0;whiteSpace=wrap;html=1;fillColor=#f8cecc;strokeColor=#b85450;" vertex="1" parent="y9RaWsFI6EFHlhMd36S--156">
          <mxGeometry x="10" y="280" width="240" height="60" as="geometry" />
        </mxCell>
        <mxCell id="y9RaWsFI6EFHlhMd36S--147" value="Eigenschaften" style="text;html=1;align=left;verticalAlign=middle;whiteSpace=wrap;rounded=0;fontStyle=4" vertex="1" parent="y9RaWsFI6EFHlhMd36S--156">
          <mxGeometry x="20" y="280" width="120" height="30" as="geometry" />
        </mxCell>
        <mxCell id="y9RaWsFI6EFHlhMd36S--148" style="edgeStyle=orthogonalEdgeStyle;rounded=0;orthogonalLoop=1;jettySize=auto;html=1;endArrow=none;endFill=0;strokeWidth=2;" edge="1" parent="y9RaWsFI6EFHlhMd36S--156" source="y9RaWsFI6EFHlhMd36S--149">
          <mxGeometry relative="1" as="geometry">
            <mxPoint x="260" y="320" as="targetPoint" />
          </mxGeometry>
        </mxCell>
        <mxCell id="y9RaWsFI6EFHlhMd36S--149" value="&lt;font style=&quot;font-size: 10px;&quot;&gt;P_State (GET)&lt;/font&gt;" style="rounded=0;whiteSpace=wrap;html=1;fillColor=#F19C99;strokeColor=#b85450;fontSize=14;" vertex="1" parent="y9RaWsFI6EFHlhMd36S--156">
          <mxGeometry x="20" y="310" width="220" height="20" as="geometry" />
        </mxCell>
        <mxCell id="y9RaWsFI6EFHlhMd36S--150" value="" style="endArrow=none;html=1;rounded=0;fillColor=#f8cecc;strokeColor=#b85450;entryX=1;entryY=0.464;entryDx=0;entryDy=0;entryPerimeter=0;exitX=0;exitY=0.466;exitDx=0;exitDy=0;exitPerimeter=0;strokeWidth=1;dashed=1;" edge="1" parent="y9RaWsFI6EFHlhMd36S--156">
          <mxGeometry width="50" height="50" relative="1" as="geometry">
            <mxPoint x="10" y="119.1400000000001" as="sourcePoint" />
            <mxPoint x="250" y="118.56000000000017" as="targetPoint" />
          </mxGeometry>
        </mxCell>
        <mxCell id="y9RaWsFI6EFHlhMd36S--151" value="" style="endArrow=none;html=1;rounded=0;fillColor=#f8cecc;strokeColor=#b85450;exitX=0;exitY=0.792;exitDx=0;exitDy=0;exitPerimeter=0;strokeWidth=1;dashed=1;entryX=1;entryY=0.793;entryDx=0;entryDy=0;entryPerimeter=0;" edge="1" parent="y9RaWsFI6EFHlhMd36S--156">
          <mxGeometry width="50" height="50" relative="1" as="geometry">
            <mxPoint x="10" y="218.68000000000006" as="sourcePoint" />
            <mxPoint x="250" y="218.97000000000003" as="targetPoint" />
          </mxGeometry>
        </mxCell>
        <mxCell id="y9RaWsFI6EFHlhMd36S--152" value="" style="rounded=0;whiteSpace=wrap;html=1;fillColor=none;strokeColor=none;" vertex="1" parent="y9RaWsFI6EFHlhMd36S--156">
          <mxGeometry x="20" y="90" width="220" height="20" as="geometry" />
        </mxCell>
        <mxCell id="y9RaWsFI6EFHlhMd36S--153" value="" style="endArrow=none;html=1;rounded=0;strokeWidth=2;" edge="1" parent="y9RaWsFI6EFHlhMd36S--156" source="y9RaWsFI6EFHlhMd36S--152">
          <mxGeometry width="50" height="50" relative="1" as="geometry">
            <mxPoint x="60" y="160" as="sourcePoint" />
            <mxPoint y="100" as="targetPoint" />
          </mxGeometry>
        </mxCell>
        <mxCell id="y9RaWsFI6EFHlhMd36S--154" value="iMode" style="text;html=1;align=left;verticalAlign=middle;whiteSpace=wrap;rounded=0;fontStyle=0;fontSize=10;" vertex="1" parent="y9RaWsFI6EFHlhMd36S--156">
          <mxGeometry x="24" y="95" width="76" height="10" as="geometry" />
        </mxCell>
        <mxCell id="y9RaWsFI6EFHlhMd36S--155" value="eProzessvariablen" style="text;html=1;align=left;verticalAlign=middle;whiteSpace=wrap;rounded=0;fontStyle=0;fontSize=10;" vertex="1" parent="y9RaWsFI6EFHlhMd36S--156">
          <mxGeometry x="24" y="255" width="76" height="10" as="geometry" />
        </mxCell>
        <mxCell id="y9RaWsFI6EFHlhMd36S--169" value="" style="group" vertex="1" connectable="0" parent="1">
          <mxGeometry x="660" y="680" width="260" height="410" as="geometry" />
        </mxCell>
        <mxCell id="y9RaWsFI6EFHlhMd36S--61" value="Objekt: Sensor" style="rounded=0;whiteSpace=wrap;html=1;fillColor=#F19C99;strokeColor=#b85450;fontSize=14;" vertex="1" parent="y9RaWsFI6EFHlhMd36S--169">
          <mxGeometry x="10" width="240" height="40" as="geometry" />
        </mxCell>
        <mxCell id="y9RaWsFI6EFHlhMd36S--62" value="" style="rounded=0;whiteSpace=wrap;html=1;fillColor=#f8cecc;strokeColor=#b85450;" vertex="1" parent="y9RaWsFI6EFHlhMd36S--169">
          <mxGeometry x="10" y="40" width="240" height="160" as="geometry" />
        </mxCell>
        <mxCell id="y9RaWsFI6EFHlhMd36S--63" value="Steuerungsvariablen" style="text;html=1;align=left;verticalAlign=middle;whiteSpace=wrap;rounded=0;fontStyle=4" vertex="1" parent="y9RaWsFI6EFHlhMd36S--169">
          <mxGeometry x="20" y="40" width="120" height="30" as="geometry" />
        </mxCell>
        <mxCell id="y9RaWsFI6EFHlhMd36S--64" style="edgeStyle=orthogonalEdgeStyle;rounded=0;orthogonalLoop=1;jettySize=auto;html=1;endArrow=none;endFill=0;strokeWidth=2;" edge="1" parent="y9RaWsFI6EFHlhMd36S--169" source="y9RaWsFI6EFHlhMd36S--65">
          <mxGeometry relative="1" as="geometry">
            <mxPoint x="260" y="80" as="targetPoint" />
          </mxGeometry>
        </mxCell>
        <mxCell id="y9RaWsFI6EFHlhMd36S--65" value="" style="rounded=0;whiteSpace=wrap;html=1;fillColor=none;strokeColor=none;" vertex="1" parent="y9RaWsFI6EFHlhMd36S--169">
          <mxGeometry x="20" y="70" width="220" height="20" as="geometry" />
        </mxCell>
        <mxCell id="y9RaWsFI6EFHlhMd36S--66" value="" style="endArrow=none;html=1;rounded=0;strokeWidth=2;" edge="1" parent="y9RaWsFI6EFHlhMd36S--169" source="y9RaWsFI6EFHlhMd36S--65">
          <mxGeometry width="50" height="50" relative="1" as="geometry">
            <mxPoint x="60" y="140" as="sourcePoint" />
            <mxPoint y="80" as="targetPoint" />
          </mxGeometry>
        </mxCell>
        <mxCell id="y9RaWsFI6EFHlhMd36S--75" value="bReset" style="text;html=1;align=left;verticalAlign=middle;whiteSpace=wrap;rounded=0;fontStyle=0;fontSize=10;" vertex="1" parent="y9RaWsFI6EFHlhMd36S--169">
          <mxGeometry x="24" y="75" width="76" height="10" as="geometry" />
        </mxCell>
        <mxCell id="y9RaWsFI6EFHlhMd36S--80" value="iErrorID" style="text;html=1;align=left;verticalAlign=middle;whiteSpace=wrap;rounded=0;fontStyle=0;fontSize=10;" vertex="1" parent="y9RaWsFI6EFHlhMd36S--169">
          <mxGeometry x="195" y="75" width="45" height="10" as="geometry" />
        </mxCell>
        <mxCell id="y9RaWsFI6EFHlhMd36S--81" value="Betriebsvariablen" style="text;html=1;align=left;verticalAlign=middle;whiteSpace=wrap;rounded=0;fontStyle=4" vertex="1" parent="y9RaWsFI6EFHlhMd36S--169">
          <mxGeometry x="20" y="119" width="120" height="30" as="geometry" />
        </mxCell>
        <mxCell id="y9RaWsFI6EFHlhMd36S--83" value="" style="rounded=0;whiteSpace=wrap;html=1;fillColor=none;strokeColor=none;" vertex="1" parent="y9RaWsFI6EFHlhMd36S--169">
          <mxGeometry x="20" y="149" width="220" height="20" as="geometry" />
        </mxCell>
        <mxCell id="y9RaWsFI6EFHlhMd36S--84" value="" style="endArrow=none;html=1;rounded=0;strokeWidth=2;" edge="1" parent="y9RaWsFI6EFHlhMd36S--169" source="y9RaWsFI6EFHlhMd36S--83">
          <mxGeometry width="50" height="50" relative="1" as="geometry">
            <mxPoint x="60" y="219" as="sourcePoint" />
            <mxPoint y="159" as="targetPoint" />
          </mxGeometry>
        </mxCell>
        <mxCell id="y9RaWsFI6EFHlhMd36S--85" value="eSysCommand" style="text;html=1;align=left;verticalAlign=middle;whiteSpace=wrap;rounded=0;fontStyle=0;fontSize=10;" vertex="1" parent="y9RaWsFI6EFHlhMd36S--169">
          <mxGeometry x="24" y="154" width="76" height="10" as="geometry" />
        </mxCell>
        <mxCell id="y9RaWsFI6EFHlhMd36S--87" value="" style="rounded=0;whiteSpace=wrap;html=1;fillColor=none;strokeColor=none;" vertex="1" parent="y9RaWsFI6EFHlhMd36S--169">
          <mxGeometry x="20" y="169" width="220" height="20" as="geometry" />
        </mxCell>
        <mxCell id="y9RaWsFI6EFHlhMd36S--88" value="" style="endArrow=none;html=1;rounded=0;strokeWidth=2;" edge="1" parent="y9RaWsFI6EFHlhMd36S--169" source="y9RaWsFI6EFHlhMd36S--87">
          <mxGeometry width="50" height="50" relative="1" as="geometry">
            <mxPoint x="60" y="239" as="sourcePoint" />
            <mxPoint y="179" as="targetPoint" />
          </mxGeometry>
        </mxCell>
        <mxCell id="y9RaWsFI6EFHlhMd36S--89" value="eSysState" style="text;html=1;align=left;verticalAlign=middle;whiteSpace=wrap;rounded=0;fontStyle=0;fontSize=10;" vertex="1" parent="y9RaWsFI6EFHlhMd36S--169">
          <mxGeometry x="24" y="174" width="76" height="10" as="geometry" />
        </mxCell>
        <mxCell id="y9RaWsFI6EFHlhMd36S--97" value="" style="rounded=0;whiteSpace=wrap;html=1;fillColor=#f8cecc;strokeColor=#b85450;" vertex="1" parent="y9RaWsFI6EFHlhMd36S--169">
          <mxGeometry x="10" y="200" width="240" height="210" as="geometry" />
        </mxCell>
        <mxCell id="y9RaWsFI6EFHlhMd36S--98" value="Eigenschaften" style="text;html=1;align=left;verticalAlign=middle;whiteSpace=wrap;rounded=0;fontStyle=4" vertex="1" parent="y9RaWsFI6EFHlhMd36S--169">
          <mxGeometry x="20" y="200" width="120" height="30" as="geometry" />
        </mxCell>
        <mxCell id="y9RaWsFI6EFHlhMd36S--99" style="edgeStyle=orthogonalEdgeStyle;rounded=0;orthogonalLoop=1;jettySize=auto;html=1;endArrow=none;endFill=0;strokeWidth=2;" edge="1" parent="y9RaWsFI6EFHlhMd36S--169" source="y9RaWsFI6EFHlhMd36S--100">
          <mxGeometry relative="1" as="geometry">
            <mxPoint x="260" y="240" as="targetPoint" />
          </mxGeometry>
        </mxCell>
        <mxCell id="y9RaWsFI6EFHlhMd36S--100" value="&lt;font style=&quot;font-size: 10px;&quot;&gt;P_State (GET)&lt;/font&gt;" style="rounded=0;whiteSpace=wrap;html=1;fillColor=#F19C99;strokeColor=#b85450;fontSize=14;" vertex="1" parent="y9RaWsFI6EFHlhMd36S--169">
          <mxGeometry x="20" y="230" width="220" height="20" as="geometry" />
        </mxCell>
        <mxCell id="y9RaWsFI6EFHlhMd36S--101" value="" style="endArrow=none;html=1;rounded=0;fillColor=#f8cecc;strokeColor=#b85450;entryX=1;entryY=0.464;entryDx=0;entryDy=0;entryPerimeter=0;exitX=0;exitY=0.466;exitDx=0;exitDy=0;exitPerimeter=0;strokeWidth=1;dashed=1;" edge="1" parent="y9RaWsFI6EFHlhMd36S--169">
          <mxGeometry width="50" height="50" relative="1" as="geometry">
            <mxPoint x="10" y="119.1400000000001" as="sourcePoint" />
            <mxPoint x="250" y="118.56000000000017" as="targetPoint" />
          </mxGeometry>
        </mxCell>
        <mxCell id="y9RaWsFI6EFHlhMd36S--108" value="" style="rounded=0;whiteSpace=wrap;html=1;fillColor=none;strokeColor=none;" vertex="1" parent="y9RaWsFI6EFHlhMd36S--169">
          <mxGeometry x="20" y="90" width="220" height="20" as="geometry" />
        </mxCell>
        <mxCell id="y9RaWsFI6EFHlhMd36S--109" value="" style="endArrow=none;html=1;rounded=0;strokeWidth=2;" edge="1" parent="y9RaWsFI6EFHlhMd36S--169" source="y9RaWsFI6EFHlhMd36S--108">
          <mxGeometry width="50" height="50" relative="1" as="geometry">
            <mxPoint x="60" y="160" as="sourcePoint" />
            <mxPoint y="100" as="targetPoint" />
          </mxGeometry>
        </mxCell>
        <mxCell id="y9RaWsFI6EFHlhMd36S--110" value="iMode" style="text;html=1;align=left;verticalAlign=middle;whiteSpace=wrap;rounded=0;fontStyle=0;fontSize=10;" vertex="1" parent="y9RaWsFI6EFHlhMd36S--169">
          <mxGeometry x="24" y="95" width="76" height="10" as="geometry" />
        </mxCell>
        <mxCell id="y9RaWsFI6EFHlhMd36S--164" style="edgeStyle=orthogonalEdgeStyle;rounded=0;orthogonalLoop=1;jettySize=auto;html=1;endArrow=none;endFill=0;strokeWidth=2;" edge="1" parent="y9RaWsFI6EFHlhMd36S--169" source="y9RaWsFI6EFHlhMd36S--159">
          <mxGeometry relative="1" as="geometry">
            <mxPoint x="260" y="270" as="targetPoint" />
          </mxGeometry>
        </mxCell>
        <mxCell id="y9RaWsFI6EFHlhMd36S--159" value="&lt;font style=&quot;font-size: 10px;&quot;&gt;P_Messwert (GET)&lt;/font&gt;" style="rounded=0;whiteSpace=wrap;html=1;fillColor=#F19C99;strokeColor=#b85450;fontSize=14;" vertex="1" parent="y9RaWsFI6EFHlhMd36S--169">
          <mxGeometry x="20" y="260" width="220" height="20" as="geometry" />
        </mxCell>
        <mxCell id="y9RaWsFI6EFHlhMd36S--165" style="edgeStyle=orthogonalEdgeStyle;rounded=0;orthogonalLoop=1;jettySize=auto;html=1;endArrow=none;endFill=0;strokeWidth=2;" edge="1" parent="y9RaWsFI6EFHlhMd36S--169" source="y9RaWsFI6EFHlhMd36S--160">
          <mxGeometry relative="1" as="geometry">
            <mxPoint x="260" y="300" as="targetPoint" />
          </mxGeometry>
        </mxCell>
        <mxCell id="y9RaWsFI6EFHlhMd36S--160" value="&lt;font style=&quot;font-size: 10px;&quot;&gt;P_Limit (GET)&lt;/font&gt;" style="rounded=0;whiteSpace=wrap;html=1;fillColor=#F19C99;strokeColor=#b85450;fontSize=14;" vertex="1" parent="y9RaWsFI6EFHlhMd36S--169">
          <mxGeometry x="20" y="290" width="220" height="20" as="geometry" />
        </mxCell>
        <mxCell id="y9RaWsFI6EFHlhMd36S--166" style="edgeStyle=orthogonalEdgeStyle;rounded=0;orthogonalLoop=1;jettySize=auto;html=1;strokeWidth=2;endArrow=none;endFill=0;" edge="1" parent="y9RaWsFI6EFHlhMd36S--169" source="y9RaWsFI6EFHlhMd36S--161">
          <mxGeometry relative="1" as="geometry">
            <mxPoint x="260" y="330" as="targetPoint" />
          </mxGeometry>
        </mxCell>
        <mxCell id="y9RaWsFI6EFHlhMd36S--161" value="&lt;font style=&quot;font-size: 10px;&quot;&gt;P_Erreicht (GET)&lt;/font&gt;" style="rounded=0;whiteSpace=wrap;html=1;fillColor=#F19C99;strokeColor=#b85450;fontSize=14;" vertex="1" parent="y9RaWsFI6EFHlhMd36S--169">
          <mxGeometry x="20" y="320" width="220" height="20" as="geometry" />
        </mxCell>
        <mxCell id="y9RaWsFI6EFHlhMd36S--167" style="edgeStyle=orthogonalEdgeStyle;rounded=0;orthogonalLoop=1;jettySize=auto;html=1;endArrow=none;endFill=0;strokeWidth=2;" edge="1" parent="y9RaWsFI6EFHlhMd36S--169" source="y9RaWsFI6EFHlhMd36S--162">
          <mxGeometry relative="1" as="geometry">
            <mxPoint y="360" as="targetPoint" />
          </mxGeometry>
        </mxCell>
        <mxCell id="y9RaWsFI6EFHlhMd36S--162" value="&lt;font style=&quot;font-size: 10px;&quot;&gt;P_LimitValue (SET)&lt;/font&gt;" style="rounded=0;whiteSpace=wrap;html=1;fillColor=#F19C99;strokeColor=#b85450;fontSize=14;" vertex="1" parent="y9RaWsFI6EFHlhMd36S--169">
          <mxGeometry x="20" y="350" width="220" height="20" as="geometry" />
        </mxCell>
        <mxCell id="y9RaWsFI6EFHlhMd36S--168" style="edgeStyle=orthogonalEdgeStyle;rounded=0;orthogonalLoop=1;jettySize=auto;html=1;endArrow=none;endFill=0;strokeWidth=2;" edge="1" parent="y9RaWsFI6EFHlhMd36S--169" source="y9RaWsFI6EFHlhMd36S--163">
          <mxGeometry relative="1" as="geometry">
            <mxPoint y="390" as="targetPoint" />
          </mxGeometry>
        </mxCell>
        <mxCell id="y9RaWsFI6EFHlhMd36S--163" value="&lt;font style=&quot;font-size: 10px;&quot;&gt;P_ErreichtValue (SET)&lt;/font&gt;" style="rounded=0;whiteSpace=wrap;html=1;fillColor=#F19C99;strokeColor=#b85450;fontSize=14;" vertex="1" parent="y9RaWsFI6EFHlhMd36S--169">
          <mxGeometry x="20" y="380" width="220" height="20" as="geometry" />
        </mxCell>
        <mxCell id="y9RaWsFI6EFHlhMd36S--377" value="" style="group" vertex="1" connectable="0" parent="1">
          <mxGeometry x="500" y="410" width="150" height="20" as="geometry" />
        </mxCell>
        <mxCell id="y9RaWsFI6EFHlhMd36S--347" value="" style="rounded=0;whiteSpace=wrap;html=1;fillColor=#f5f5f5;strokeColor=#666666;fontColor=#333333;" vertex="1" parent="y9RaWsFI6EFHlhMd36S--377">
          <mxGeometry width="140" height="20" as="geometry" />
        </mxCell>
        <mxCell id="y9RaWsFI6EFHlhMd36S--348" style="edgeStyle=orthogonalEdgeStyle;rounded=0;orthogonalLoop=1;jettySize=auto;html=1;endArrow=none;endFill=0;strokeWidth=2;" edge="1" parent="y9RaWsFI6EFHlhMd36S--377" source="y9RaWsFI6EFHlhMd36S--349">
          <mxGeometry relative="1" as="geometry">
            <mxPoint x="160" y="10" as="targetPoint" />
          </mxGeometry>
        </mxCell>
        <mxCell id="y9RaWsFI6EFHlhMd36S--349" value="" style="rounded=0;whiteSpace=wrap;html=1;fillColor=none;strokeColor=none;" vertex="1" parent="y9RaWsFI6EFHlhMd36S--377">
          <mxGeometry x="10" width="120" height="20" as="geometry" />
        </mxCell>
        <mxCell id="y9RaWsFI6EFHlhMd36S--350" value="eSysCommand" style="text;html=1;align=center;verticalAlign=middle;whiteSpace=wrap;rounded=0;fontStyle=0;fontSize=10;" vertex="1" parent="y9RaWsFI6EFHlhMd36S--377">
          <mxGeometry x="20" y="5" width="100" height="10" as="geometry" />
        </mxCell>
        <mxCell id="y9RaWsFI6EFHlhMd36S--381" value="" style="group" vertex="1" connectable="0" parent="1">
          <mxGeometry x="1010" y="829" width="150" height="20" as="geometry" />
        </mxCell>
        <mxCell id="y9RaWsFI6EFHlhMd36S--382" value="" style="rounded=0;whiteSpace=wrap;html=1;fillColor=#f5f5f5;strokeColor=#666666;fontColor=#333333;" vertex="1" parent="y9RaWsFI6EFHlhMd36S--381">
          <mxGeometry width="140" height="20" as="geometry" />
        </mxCell>
        <mxCell id="y9RaWsFI6EFHlhMd36S--383" style="edgeStyle=orthogonalEdgeStyle;rounded=0;orthogonalLoop=1;jettySize=auto;html=1;endArrow=none;endFill=0;strokeWidth=2;" edge="1" parent="y9RaWsFI6EFHlhMd36S--381" source="y9RaWsFI6EFHlhMd36S--384">
          <mxGeometry relative="1" as="geometry">
            <mxPoint x="160" y="10" as="targetPoint" />
          </mxGeometry>
        </mxCell>
        <mxCell id="y9RaWsFI6EFHlhMd36S--384" value="" style="rounded=0;whiteSpace=wrap;html=1;fillColor=none;strokeColor=none;" vertex="1" parent="y9RaWsFI6EFHlhMd36S--381">
          <mxGeometry x="10" width="120" height="20" as="geometry" />
        </mxCell>
        <mxCell id="y9RaWsFI6EFHlhMd36S--385" value="eSysCommand" style="text;html=1;align=center;verticalAlign=middle;whiteSpace=wrap;rounded=0;fontStyle=0;fontSize=10;" vertex="1" parent="y9RaWsFI6EFHlhMd36S--381">
          <mxGeometry x="20" y="5" width="100" height="10" as="geometry" />
        </mxCell>
        <mxCell id="y9RaWsFI6EFHlhMd36S--387" value="" style="group" vertex="1" connectable="0" parent="1">
          <mxGeometry x="500" y="829" width="150" height="20" as="geometry" />
        </mxCell>
        <mxCell id="y9RaWsFI6EFHlhMd36S--388" value="" style="rounded=0;whiteSpace=wrap;html=1;fillColor=#f5f5f5;strokeColor=#666666;fontColor=#333333;" vertex="1" parent="y9RaWsFI6EFHlhMd36S--387">
          <mxGeometry width="140" height="20" as="geometry" />
        </mxCell>
        <mxCell id="y9RaWsFI6EFHlhMd36S--389" style="edgeStyle=orthogonalEdgeStyle;rounded=0;orthogonalLoop=1;jettySize=auto;html=1;endArrow=none;endFill=0;strokeWidth=2;" edge="1" parent="y9RaWsFI6EFHlhMd36S--387" source="y9RaWsFI6EFHlhMd36S--390">
          <mxGeometry relative="1" as="geometry">
            <mxPoint x="160" y="10" as="targetPoint" />
          </mxGeometry>
        </mxCell>
        <mxCell id="y9RaWsFI6EFHlhMd36S--390" value="" style="rounded=0;whiteSpace=wrap;html=1;fillColor=none;strokeColor=none;" vertex="1" parent="y9RaWsFI6EFHlhMd36S--387">
          <mxGeometry x="10" width="120" height="20" as="geometry" />
        </mxCell>
        <mxCell id="y9RaWsFI6EFHlhMd36S--391" value="eSysCommand" style="text;html=1;align=center;verticalAlign=middle;whiteSpace=wrap;rounded=0;fontStyle=0;fontSize=10;" vertex="1" parent="y9RaWsFI6EFHlhMd36S--387">
          <mxGeometry x="20" y="5" width="100" height="10" as="geometry" />
        </mxCell>
        <mxCell id="y9RaWsFI6EFHlhMd36S--395" value="" style="group" vertex="1" connectable="0" parent="1">
          <mxGeometry x="500" y="430" width="150" height="20" as="geometry" />
        </mxCell>
        <mxCell id="y9RaWsFI6EFHlhMd36S--396" value="" style="rounded=0;whiteSpace=wrap;html=1;fillColor=#f5f5f5;strokeColor=#666666;fontColor=#333333;" vertex="1" parent="y9RaWsFI6EFHlhMd36S--395">
          <mxGeometry width="140" height="20" as="geometry" />
        </mxCell>
        <mxCell id="y9RaWsFI6EFHlhMd36S--397" style="edgeStyle=orthogonalEdgeStyle;rounded=0;orthogonalLoop=1;jettySize=auto;html=1;endArrow=none;endFill=0;strokeWidth=2;" edge="1" parent="y9RaWsFI6EFHlhMd36S--395" source="y9RaWsFI6EFHlhMd36S--398">
          <mxGeometry relative="1" as="geometry">
            <mxPoint x="160" y="10" as="targetPoint" />
          </mxGeometry>
        </mxCell>
        <mxCell id="y9RaWsFI6EFHlhMd36S--398" value="" style="rounded=0;whiteSpace=wrap;html=1;fillColor=none;strokeColor=none;" vertex="1" parent="y9RaWsFI6EFHlhMd36S--395">
          <mxGeometry x="10" width="120" height="20" as="geometry" />
        </mxCell>
        <mxCell id="y9RaWsFI6EFHlhMd36S--399" value="eSysState" style="text;html=1;align=center;verticalAlign=middle;whiteSpace=wrap;rounded=0;fontStyle=0;fontSize=10;" vertex="1" parent="y9RaWsFI6EFHlhMd36S--395">
          <mxGeometry x="20" y="5" width="100" height="10" as="geometry" />
        </mxCell>
        <mxCell id="y9RaWsFI6EFHlhMd36S--402" value="" style="group" vertex="1" connectable="0" parent="1">
          <mxGeometry x="1010" y="849" width="150" height="20" as="geometry" />
        </mxCell>
        <mxCell id="y9RaWsFI6EFHlhMd36S--403" value="" style="rounded=0;whiteSpace=wrap;html=1;fillColor=#f5f5f5;strokeColor=#666666;fontColor=#333333;" vertex="1" parent="y9RaWsFI6EFHlhMd36S--402">
          <mxGeometry width="140" height="20" as="geometry" />
        </mxCell>
        <mxCell id="y9RaWsFI6EFHlhMd36S--404" style="edgeStyle=orthogonalEdgeStyle;rounded=0;orthogonalLoop=1;jettySize=auto;html=1;endArrow=none;endFill=0;strokeWidth=2;" edge="1" parent="y9RaWsFI6EFHlhMd36S--402" source="y9RaWsFI6EFHlhMd36S--405">
          <mxGeometry relative="1" as="geometry">
            <mxPoint x="160" y="10" as="targetPoint" />
          </mxGeometry>
        </mxCell>
        <mxCell id="y9RaWsFI6EFHlhMd36S--405" value="" style="rounded=0;whiteSpace=wrap;html=1;fillColor=none;strokeColor=none;" vertex="1" parent="y9RaWsFI6EFHlhMd36S--402">
          <mxGeometry x="10" width="120" height="20" as="geometry" />
        </mxCell>
        <mxCell id="y9RaWsFI6EFHlhMd36S--406" value="eSysState" style="text;html=1;align=center;verticalAlign=middle;whiteSpace=wrap;rounded=0;fontStyle=0;fontSize=10;" vertex="1" parent="y9RaWsFI6EFHlhMd36S--402">
          <mxGeometry x="20" y="5" width="100" height="10" as="geometry" />
        </mxCell>
        <mxCell id="y9RaWsFI6EFHlhMd36S--408" value="" style="group" vertex="1" connectable="0" parent="1">
          <mxGeometry x="500" y="849" width="150" height="20" as="geometry" />
        </mxCell>
        <mxCell id="y9RaWsFI6EFHlhMd36S--409" value="" style="rounded=0;whiteSpace=wrap;html=1;fillColor=#f5f5f5;strokeColor=#666666;fontColor=#333333;" vertex="1" parent="y9RaWsFI6EFHlhMd36S--408">
          <mxGeometry width="140" height="20" as="geometry" />
        </mxCell>
        <mxCell id="y9RaWsFI6EFHlhMd36S--410" style="edgeStyle=orthogonalEdgeStyle;rounded=0;orthogonalLoop=1;jettySize=auto;html=1;endArrow=none;endFill=0;strokeWidth=2;" edge="1" parent="y9RaWsFI6EFHlhMd36S--408" source="y9RaWsFI6EFHlhMd36S--411">
          <mxGeometry relative="1" as="geometry">
            <mxPoint x="160" y="10" as="targetPoint" />
          </mxGeometry>
        </mxCell>
        <mxCell id="y9RaWsFI6EFHlhMd36S--411" value="" style="rounded=0;whiteSpace=wrap;html=1;fillColor=none;strokeColor=none;" vertex="1" parent="y9RaWsFI6EFHlhMd36S--408">
          <mxGeometry x="10" width="120" height="20" as="geometry" />
        </mxCell>
        <mxCell id="y9RaWsFI6EFHlhMd36S--412" value="eSysState" style="text;html=1;align=center;verticalAlign=middle;whiteSpace=wrap;rounded=0;fontStyle=0;fontSize=10;" vertex="1" parent="y9RaWsFI6EFHlhMd36S--408">
          <mxGeometry x="20" y="5" width="100" height="10" as="geometry" />
        </mxCell>
        <mxCell id="y9RaWsFI6EFHlhMd36S--413" value="" style="group" vertex="1" connectable="0" parent="1">
          <mxGeometry x="940" y="610" width="150" height="20" as="geometry" />
        </mxCell>
        <mxCell id="y9RaWsFI6EFHlhMd36S--414" value="" style="rounded=0;whiteSpace=wrap;html=1;fillColor=#f5f5f5;strokeColor=#666666;fontColor=#333333;" vertex="1" parent="y9RaWsFI6EFHlhMd36S--413">
          <mxGeometry width="140" height="20" as="geometry" />
        </mxCell>
        <mxCell id="y9RaWsFI6EFHlhMd36S--419" style="edgeStyle=orthogonalEdgeStyle;rounded=0;orthogonalLoop=1;jettySize=auto;html=1;endArrow=none;endFill=0;strokeWidth=2;" edge="1" parent="y9RaWsFI6EFHlhMd36S--413" source="y9RaWsFI6EFHlhMd36S--416">
          <mxGeometry relative="1" as="geometry">
            <mxPoint x="-20" y="10" as="targetPoint" />
          </mxGeometry>
        </mxCell>
        <mxCell id="y9RaWsFI6EFHlhMd36S--416" value="" style="rounded=0;whiteSpace=wrap;html=1;fillColor=none;strokeColor=none;" vertex="1" parent="y9RaWsFI6EFHlhMd36S--413">
          <mxGeometry x="10" width="120" height="20" as="geometry" />
        </mxCell>
        <mxCell id="y9RaWsFI6EFHlhMd36S--417" value="eSkillState" style="text;html=1;align=center;verticalAlign=middle;whiteSpace=wrap;rounded=0;fontStyle=0;fontSize=10;" vertex="1" parent="y9RaWsFI6EFHlhMd36S--413">
          <mxGeometry x="20" y="5" width="100" height="10" as="geometry" />
        </mxCell>
        <mxCell id="y9RaWsFI6EFHlhMd36S--422" value="" style="group" vertex="1" connectable="0" parent="1">
          <mxGeometry x="940" y="910" width="150" height="20" as="geometry" />
        </mxCell>
        <mxCell id="y9RaWsFI6EFHlhMd36S--423" value="" style="rounded=0;whiteSpace=wrap;html=1;fillColor=#f5f5f5;strokeColor=#666666;fontColor=#333333;" vertex="1" parent="y9RaWsFI6EFHlhMd36S--422">
          <mxGeometry width="140" height="20" as="geometry" />
        </mxCell>
        <mxCell id="y9RaWsFI6EFHlhMd36S--424" style="edgeStyle=orthogonalEdgeStyle;rounded=0;orthogonalLoop=1;jettySize=auto;html=1;endArrow=none;endFill=0;strokeWidth=2;" edge="1" parent="y9RaWsFI6EFHlhMd36S--422" source="y9RaWsFI6EFHlhMd36S--425">
          <mxGeometry relative="1" as="geometry">
            <mxPoint x="-20" y="10" as="targetPoint" />
          </mxGeometry>
        </mxCell>
        <mxCell id="y9RaWsFI6EFHlhMd36S--425" value="" style="rounded=0;whiteSpace=wrap;html=1;fillColor=none;strokeColor=none;" vertex="1" parent="y9RaWsFI6EFHlhMd36S--422">
          <mxGeometry x="10" width="120" height="20" as="geometry" />
        </mxCell>
        <mxCell id="y9RaWsFI6EFHlhMd36S--426" value="eObjState" style="text;html=1;align=center;verticalAlign=middle;whiteSpace=wrap;rounded=0;fontStyle=0;fontSize=10;" vertex="1" parent="y9RaWsFI6EFHlhMd36S--422">
          <mxGeometry x="20" y="5" width="100" height="10" as="geometry" />
        </mxCell>
        <mxCell id="y9RaWsFI6EFHlhMd36S--427" value="" style="group" vertex="1" connectable="0" parent="1">
          <mxGeometry x="1450" y="990" width="150" height="20" as="geometry" />
        </mxCell>
        <mxCell id="y9RaWsFI6EFHlhMd36S--428" value="" style="rounded=0;whiteSpace=wrap;html=1;fillColor=#f5f5f5;strokeColor=#666666;fontColor=#333333;" vertex="1" parent="y9RaWsFI6EFHlhMd36S--427">
          <mxGeometry width="140" height="20" as="geometry" />
        </mxCell>
        <mxCell id="y9RaWsFI6EFHlhMd36S--429" style="edgeStyle=orthogonalEdgeStyle;rounded=0;orthogonalLoop=1;jettySize=auto;html=1;endArrow=none;endFill=0;strokeWidth=2;" edge="1" parent="y9RaWsFI6EFHlhMd36S--427" source="y9RaWsFI6EFHlhMd36S--430">
          <mxGeometry relative="1" as="geometry">
            <mxPoint x="-20" y="10" as="targetPoint" />
          </mxGeometry>
        </mxCell>
        <mxCell id="y9RaWsFI6EFHlhMd36S--430" value="" style="rounded=0;whiteSpace=wrap;html=1;fillColor=none;strokeColor=none;" vertex="1" parent="y9RaWsFI6EFHlhMd36S--427">
          <mxGeometry x="10" width="120" height="20" as="geometry" />
        </mxCell>
        <mxCell id="y9RaWsFI6EFHlhMd36S--431" value="eObjState" style="text;html=1;align=center;verticalAlign=middle;whiteSpace=wrap;rounded=0;fontStyle=0;fontSize=10;" vertex="1" parent="y9RaWsFI6EFHlhMd36S--427">
          <mxGeometry x="20" y="5" width="100" height="10" as="geometry" />
        </mxCell>
        <mxCell id="y9RaWsFI6EFHlhMd36S--433" value="" style="group" vertex="1" connectable="0" parent="1">
          <mxGeometry x="940" y="360" width="150" height="20" as="geometry" />
        </mxCell>
        <mxCell id="y9RaWsFI6EFHlhMd36S--434" value="" style="rounded=0;whiteSpace=wrap;html=1;fillColor=#f5f5f5;strokeColor=#666666;fontColor=#333333;" vertex="1" parent="y9RaWsFI6EFHlhMd36S--433">
          <mxGeometry width="140" height="20" as="geometry" />
        </mxCell>
        <mxCell id="y9RaWsFI6EFHlhMd36S--435" style="edgeStyle=orthogonalEdgeStyle;rounded=0;orthogonalLoop=1;jettySize=auto;html=1;endArrow=none;endFill=0;strokeWidth=2;" edge="1" parent="y9RaWsFI6EFHlhMd36S--433" source="y9RaWsFI6EFHlhMd36S--436">
          <mxGeometry relative="1" as="geometry">
            <mxPoint x="-20" y="10" as="targetPoint" />
          </mxGeometry>
        </mxCell>
        <mxCell id="y9RaWsFI6EFHlhMd36S--436" value="" style="rounded=0;whiteSpace=wrap;html=1;fillColor=none;strokeColor=none;" vertex="1" parent="y9RaWsFI6EFHlhMd36S--433">
          <mxGeometry x="10" width="120" height="20" as="geometry" />
        </mxCell>
        <mxCell id="y9RaWsFI6EFHlhMd36S--437" value="iErrorID" style="text;html=1;align=center;verticalAlign=middle;whiteSpace=wrap;rounded=0;fontStyle=0;fontSize=10;" vertex="1" parent="y9RaWsFI6EFHlhMd36S--433">
          <mxGeometry x="20" y="5" width="100" height="10" as="geometry" />
        </mxCell>
        <mxCell id="y9RaWsFI6EFHlhMd36S--439" value="" style="group" vertex="1" connectable="0" parent="1">
          <mxGeometry x="940" y="750" width="150" height="20" as="geometry" />
        </mxCell>
        <mxCell id="y9RaWsFI6EFHlhMd36S--440" value="" style="rounded=0;whiteSpace=wrap;html=1;fillColor=#f5f5f5;strokeColor=#666666;fontColor=#333333;" vertex="1" parent="y9RaWsFI6EFHlhMd36S--439">
          <mxGeometry width="140" height="20" as="geometry" />
        </mxCell>
        <mxCell id="y9RaWsFI6EFHlhMd36S--441" style="edgeStyle=orthogonalEdgeStyle;rounded=0;orthogonalLoop=1;jettySize=auto;html=1;endArrow=none;endFill=0;strokeWidth=2;" edge="1" parent="y9RaWsFI6EFHlhMd36S--439" source="y9RaWsFI6EFHlhMd36S--442">
          <mxGeometry relative="1" as="geometry">
            <mxPoint x="-20" y="10" as="targetPoint" />
          </mxGeometry>
        </mxCell>
        <mxCell id="y9RaWsFI6EFHlhMd36S--442" value="" style="rounded=0;whiteSpace=wrap;html=1;fillColor=none;strokeColor=none;" vertex="1" parent="y9RaWsFI6EFHlhMd36S--439">
          <mxGeometry x="10" width="120" height="20" as="geometry" />
        </mxCell>
        <mxCell id="y9RaWsFI6EFHlhMd36S--443" value="iErrorID" style="text;html=1;align=center;verticalAlign=middle;whiteSpace=wrap;rounded=0;fontStyle=0;fontSize=10;" vertex="1" parent="y9RaWsFI6EFHlhMd36S--439">
          <mxGeometry x="20" y="5" width="100" height="10" as="geometry" />
        </mxCell>
        <mxCell id="y9RaWsFI6EFHlhMd36S--445" value="" style="group" vertex="1" connectable="0" parent="1">
          <mxGeometry x="1450" y="750" width="150" height="20" as="geometry" />
        </mxCell>
        <mxCell id="y9RaWsFI6EFHlhMd36S--446" value="" style="rounded=0;whiteSpace=wrap;html=1;fillColor=#f5f5f5;strokeColor=#666666;fontColor=#333333;" vertex="1" parent="y9RaWsFI6EFHlhMd36S--445">
          <mxGeometry width="140" height="20" as="geometry" />
        </mxCell>
        <mxCell id="y9RaWsFI6EFHlhMd36S--447" style="edgeStyle=orthogonalEdgeStyle;rounded=0;orthogonalLoop=1;jettySize=auto;html=1;endArrow=none;endFill=0;strokeWidth=2;" edge="1" parent="y9RaWsFI6EFHlhMd36S--445" source="y9RaWsFI6EFHlhMd36S--448">
          <mxGeometry relative="1" as="geometry">
            <mxPoint x="-20" y="10" as="targetPoint" />
          </mxGeometry>
        </mxCell>
        <mxCell id="y9RaWsFI6EFHlhMd36S--448" value="" style="rounded=0;whiteSpace=wrap;html=1;fillColor=none;strokeColor=none;" vertex="1" parent="y9RaWsFI6EFHlhMd36S--445">
          <mxGeometry x="10" width="120" height="20" as="geometry" />
        </mxCell>
        <mxCell id="y9RaWsFI6EFHlhMd36S--449" value="iErrorID" style="text;html=1;align=center;verticalAlign=middle;whiteSpace=wrap;rounded=0;fontStyle=0;fontSize=10;" vertex="1" parent="y9RaWsFI6EFHlhMd36S--445">
          <mxGeometry x="20" y="5" width="100" height="10" as="geometry" />
        </mxCell>
        <mxCell id="y9RaWsFI6EFHlhMd36S--452" value="" style="group" vertex="1" connectable="0" parent="1">
          <mxGeometry x="500" y="1030" width="150" height="20" as="geometry" />
        </mxCell>
        <mxCell id="y9RaWsFI6EFHlhMd36S--453" value="" style="rounded=0;whiteSpace=wrap;html=1;fillColor=#f5f5f5;strokeColor=#666666;fontColor=#333333;" vertex="1" parent="y9RaWsFI6EFHlhMd36S--452">
          <mxGeometry width="140" height="20" as="geometry" />
        </mxCell>
        <mxCell id="y9RaWsFI6EFHlhMd36S--454" style="edgeStyle=orthogonalEdgeStyle;rounded=0;orthogonalLoop=1;jettySize=auto;html=1;endArrow=none;endFill=0;strokeWidth=2;" edge="1" parent="y9RaWsFI6EFHlhMd36S--452" source="y9RaWsFI6EFHlhMd36S--455">
          <mxGeometry relative="1" as="geometry">
            <mxPoint x="160" y="10" as="targetPoint" />
          </mxGeometry>
        </mxCell>
        <mxCell id="y9RaWsFI6EFHlhMd36S--455" value="" style="rounded=0;whiteSpace=wrap;html=1;fillColor=none;strokeColor=none;" vertex="1" parent="y9RaWsFI6EFHlhMd36S--452">
          <mxGeometry x="10" width="120" height="20" as="geometry" />
        </mxCell>
        <mxCell id="y9RaWsFI6EFHlhMd36S--456" value="eLimitValue" style="text;html=1;align=center;verticalAlign=middle;whiteSpace=wrap;rounded=0;fontStyle=0;fontSize=10;" vertex="1" parent="y9RaWsFI6EFHlhMd36S--452">
          <mxGeometry x="20" y="5" width="100" height="10" as="geometry" />
        </mxCell>
        <mxCell id="y9RaWsFI6EFHlhMd36S--457" value="" style="group" vertex="1" connectable="0" parent="1">
          <mxGeometry x="500" y="1060" width="150" height="20" as="geometry" />
        </mxCell>
        <mxCell id="y9RaWsFI6EFHlhMd36S--458" value="" style="rounded=0;whiteSpace=wrap;html=1;fillColor=#f5f5f5;strokeColor=#666666;fontColor=#333333;" vertex="1" parent="y9RaWsFI6EFHlhMd36S--457">
          <mxGeometry width="140" height="20" as="geometry" />
        </mxCell>
        <mxCell id="y9RaWsFI6EFHlhMd36S--459" style="edgeStyle=orthogonalEdgeStyle;rounded=0;orthogonalLoop=1;jettySize=auto;html=1;endArrow=none;endFill=0;strokeWidth=2;" edge="1" parent="y9RaWsFI6EFHlhMd36S--457" source="y9RaWsFI6EFHlhMd36S--460">
          <mxGeometry relative="1" as="geometry">
            <mxPoint x="160" y="10" as="targetPoint" />
          </mxGeometry>
        </mxCell>
        <mxCell id="y9RaWsFI6EFHlhMd36S--460" value="" style="rounded=0;whiteSpace=wrap;html=1;fillColor=none;strokeColor=none;" vertex="1" parent="y9RaWsFI6EFHlhMd36S--457">
          <mxGeometry x="10" width="120" height="20" as="geometry" />
        </mxCell>
        <mxCell id="y9RaWsFI6EFHlhMd36S--461" value="eErreichtValue" style="text;html=1;align=center;verticalAlign=middle;whiteSpace=wrap;rounded=0;fontStyle=0;fontSize=10;" vertex="1" parent="y9RaWsFI6EFHlhMd36S--457">
          <mxGeometry x="20" y="5" width="100" height="10" as="geometry" />
        </mxCell>
        <mxCell id="y9RaWsFI6EFHlhMd36S--470" value="" style="group" vertex="1" connectable="0" parent="1">
          <mxGeometry x="500" y="450" width="150" height="20" as="geometry" />
        </mxCell>
        <mxCell id="y9RaWsFI6EFHlhMd36S--471" value="" style="rounded=0;whiteSpace=wrap;html=1;fillColor=#f5f5f5;strokeColor=#666666;fontColor=#333333;" vertex="1" parent="y9RaWsFI6EFHlhMd36S--470">
          <mxGeometry width="140" height="20" as="geometry" />
        </mxCell>
        <mxCell id="y9RaWsFI6EFHlhMd36S--472" style="edgeStyle=orthogonalEdgeStyle;rounded=0;orthogonalLoop=1;jettySize=auto;html=1;endArrow=none;endFill=0;strokeWidth=2;" edge="1" parent="y9RaWsFI6EFHlhMd36S--470" source="y9RaWsFI6EFHlhMd36S--473">
          <mxGeometry relative="1" as="geometry">
            <mxPoint x="160" y="10" as="targetPoint" />
          </mxGeometry>
        </mxCell>
        <mxCell id="y9RaWsFI6EFHlhMd36S--473" value="" style="rounded=0;whiteSpace=wrap;html=1;fillColor=none;strokeColor=none;" vertex="1" parent="y9RaWsFI6EFHlhMd36S--470">
          <mxGeometry x="10" width="120" height="20" as="geometry" />
        </mxCell>
        <mxCell id="y9RaWsFI6EFHlhMd36S--474" value="eObjState" style="text;html=1;align=center;verticalAlign=middle;whiteSpace=wrap;rounded=0;fontStyle=0;fontSize=10;" vertex="1" parent="y9RaWsFI6EFHlhMd36S--470">
          <mxGeometry x="20" y="5" width="100" height="10" as="geometry" />
        </mxCell>
        <mxCell id="y9RaWsFI6EFHlhMd36S--1" value="Skill_Kontrollierte_Bewegung" style="rounded=0;whiteSpace=wrap;html=1;fillColor=#FFE599;strokeColor=#d6b656;fontSize=14;" vertex="1" parent="1">
          <mxGeometry x="670" y="210" width="240" height="40" as="geometry" />
        </mxCell>
        <mxCell id="y9RaWsFI6EFHlhMd36S--2" value="" style="rounded=0;whiteSpace=wrap;html=1;fillColor=#fff2cc;strokeColor=#d6b656;" vertex="1" parent="1">
          <mxGeometry x="670" y="250" width="240" height="330" as="geometry" />
        </mxCell>
        <mxCell id="y9RaWsFI6EFHlhMd36S--3" value="Steuerungsvariablen" style="text;html=1;align=left;verticalAlign=middle;whiteSpace=wrap;rounded=0;fontStyle=4" vertex="1" parent="1">
          <mxGeometry x="680" y="250" width="120" height="30" as="geometry" />
        </mxCell>
        <mxCell id="y9RaWsFI6EFHlhMd36S--4" style="edgeStyle=orthogonalEdgeStyle;rounded=0;orthogonalLoop=1;jettySize=auto;html=1;endArrow=none;endFill=0;strokeWidth=2;" edge="1" parent="1" source="y9RaWsFI6EFHlhMd36S--5">
          <mxGeometry relative="1" as="geometry">
            <mxPoint x="920" y="290" as="targetPoint" />
          </mxGeometry>
        </mxCell>
        <mxCell id="y9RaWsFI6EFHlhMd36S--5" value="" style="rounded=0;whiteSpace=wrap;html=1;fillColor=none;strokeColor=none;" vertex="1" parent="1">
          <mxGeometry x="680" y="280" width="220" height="20" as="geometry" />
        </mxCell>
        <mxCell id="y9RaWsFI6EFHlhMd36S--6" value="" style="endArrow=none;html=1;rounded=0;strokeWidth=2;" edge="1" parent="1" source="y9RaWsFI6EFHlhMd36S--5">
          <mxGeometry width="50" height="50" relative="1" as="geometry">
            <mxPoint x="720" y="350" as="sourcePoint" />
            <mxPoint x="660" y="290" as="targetPoint" />
          </mxGeometry>
        </mxCell>
        <mxCell id="y9RaWsFI6EFHlhMd36S--7" style="edgeStyle=orthogonalEdgeStyle;rounded=0;orthogonalLoop=1;jettySize=auto;html=1;endArrow=none;endFill=0;strokeWidth=2;" edge="1" parent="1" source="y9RaWsFI6EFHlhMd36S--8">
          <mxGeometry relative="1" as="geometry">
            <mxPoint x="920" y="310" as="targetPoint" />
          </mxGeometry>
        </mxCell>
        <mxCell id="y9RaWsFI6EFHlhMd36S--8" value="" style="rounded=0;whiteSpace=wrap;html=1;fillColor=none;strokeColor=none;" vertex="1" parent="1">
          <mxGeometry x="680" y="300" width="220" height="20" as="geometry" />
        </mxCell>
        <mxCell id="y9RaWsFI6EFHlhMd36S--9" style="edgeStyle=orthogonalEdgeStyle;rounded=0;orthogonalLoop=1;jettySize=auto;html=1;endArrow=none;endFill=0;strokeWidth=2;" edge="1" parent="1" source="y9RaWsFI6EFHlhMd36S--10">
          <mxGeometry relative="1" as="geometry">
            <mxPoint x="920" y="330" as="targetPoint" />
          </mxGeometry>
        </mxCell>
        <mxCell id="y9RaWsFI6EFHlhMd36S--10" value="" style="rounded=0;whiteSpace=wrap;html=1;fillColor=none;strokeColor=none;" vertex="1" parent="1">
          <mxGeometry x="680" y="320" width="220" height="20" as="geometry" />
        </mxCell>
        <mxCell id="y9RaWsFI6EFHlhMd36S--11" style="edgeStyle=orthogonalEdgeStyle;rounded=0;orthogonalLoop=1;jettySize=auto;html=1;endArrow=none;endFill=0;strokeWidth=2;" edge="1" parent="1" source="y9RaWsFI6EFHlhMd36S--12">
          <mxGeometry relative="1" as="geometry">
            <mxPoint x="920" y="350" as="targetPoint" />
          </mxGeometry>
        </mxCell>
        <mxCell id="y9RaWsFI6EFHlhMd36S--12" value="" style="rounded=0;whiteSpace=wrap;html=1;fillColor=none;strokeColor=none;" vertex="1" parent="1">
          <mxGeometry x="680" y="340" width="220" height="20" as="geometry" />
        </mxCell>
        <mxCell id="y9RaWsFI6EFHlhMd36S--13" style="edgeStyle=orthogonalEdgeStyle;rounded=0;orthogonalLoop=1;jettySize=auto;html=1;endArrow=none;endFill=0;strokeWidth=2;" edge="1" parent="1" source="y9RaWsFI6EFHlhMd36S--14">
          <mxGeometry relative="1" as="geometry">
            <mxPoint x="920" y="370" as="targetPoint" />
          </mxGeometry>
        </mxCell>
        <mxCell id="y9RaWsFI6EFHlhMd36S--14" value="" style="rounded=0;whiteSpace=wrap;html=1;fillColor=none;strokeColor=none;" vertex="1" parent="1">
          <mxGeometry x="680" y="360" width="220" height="20" as="geometry" />
        </mxCell>
        <mxCell id="y9RaWsFI6EFHlhMd36S--15" value="bExecute" style="text;html=1;align=left;verticalAlign=middle;whiteSpace=wrap;rounded=0;fontStyle=0;fontSize=10;" vertex="1" parent="1">
          <mxGeometry x="684" y="285" width="76" height="10" as="geometry" />
        </mxCell>
        <mxCell id="y9RaWsFI6EFHlhMd36S--16" value="bDone" style="text;html=1;align=left;verticalAlign=middle;whiteSpace=wrap;rounded=0;fontStyle=0;fontSize=10;" vertex="1" parent="1">
          <mxGeometry x="860" y="285" width="40" height="10" as="geometry" />
        </mxCell>
        <mxCell id="y9RaWsFI6EFHlhMd36S--17" value="bBusy" style="text;html=1;align=left;verticalAlign=middle;whiteSpace=wrap;rounded=0;fontStyle=0;fontSize=10;" vertex="1" parent="1">
          <mxGeometry x="860" y="305" width="40" height="10" as="geometry" />
        </mxCell>
        <mxCell id="y9RaWsFI6EFHlhMd36S--18" value="bLimit" style="text;html=1;align=left;verticalAlign=middle;whiteSpace=wrap;rounded=0;fontStyle=0;fontSize=10;" vertex="1" parent="1">
          <mxGeometry x="860" y="325" width="40" height="10" as="geometry" />
        </mxCell>
        <mxCell id="y9RaWsFI6EFHlhMd36S--19" value="bError" style="text;html=1;align=left;verticalAlign=middle;whiteSpace=wrap;rounded=0;fontStyle=0;fontSize=10;" vertex="1" parent="1">
          <mxGeometry x="860" y="345" width="40" height="10" as="geometry" />
        </mxCell>
        <mxCell id="y9RaWsFI6EFHlhMd36S--20" value="iErrorID" style="text;html=1;align=left;verticalAlign=middle;whiteSpace=wrap;rounded=0;fontStyle=0;fontSize=10;" vertex="1" parent="1">
          <mxGeometry x="855" y="365" width="45" height="10" as="geometry" />
        </mxCell>
        <mxCell id="y9RaWsFI6EFHlhMd36S--21" value="Betriebsvariablen" style="text;html=1;align=left;verticalAlign=middle;whiteSpace=wrap;rounded=0;fontStyle=4" vertex="1" parent="1">
          <mxGeometry x="680" y="380" width="120" height="30" as="geometry" />
        </mxCell>
        <mxCell id="y9RaWsFI6EFHlhMd36S--22" style="edgeStyle=orthogonalEdgeStyle;rounded=0;orthogonalLoop=1;jettySize=auto;html=1;endArrow=none;endFill=0;strokeWidth=2;" edge="1" parent="1" source="y9RaWsFI6EFHlhMd36S--23">
          <mxGeometry relative="1" as="geometry">
            <mxPoint x="920" y="420" as="targetPoint" />
          </mxGeometry>
        </mxCell>
        <mxCell id="y9RaWsFI6EFHlhMd36S--23" value="" style="rounded=0;whiteSpace=wrap;html=1;fillColor=none;strokeColor=none;" vertex="1" parent="1">
          <mxGeometry x="680" y="410" width="220" height="20" as="geometry" />
        </mxCell>
        <mxCell id="y9RaWsFI6EFHlhMd36S--24" value="" style="endArrow=none;html=1;rounded=0;strokeWidth=2;" edge="1" parent="1" source="y9RaWsFI6EFHlhMd36S--23">
          <mxGeometry width="50" height="50" relative="1" as="geometry">
            <mxPoint x="720" y="480" as="sourcePoint" />
            <mxPoint x="660" y="420" as="targetPoint" />
          </mxGeometry>
        </mxCell>
        <mxCell id="y9RaWsFI6EFHlhMd36S--25" value="eSysCommand" style="text;html=1;align=left;verticalAlign=middle;whiteSpace=wrap;rounded=0;fontStyle=0;fontSize=10;" vertex="1" parent="1">
          <mxGeometry x="684" y="415" width="76" height="10" as="geometry" />
        </mxCell>
        <mxCell id="y9RaWsFI6EFHlhMd36S--26" value="eSkillCommand" style="text;html=1;align=left;verticalAlign=middle;whiteSpace=wrap;rounded=0;fontStyle=0;fontSize=10;" vertex="1" parent="1">
          <mxGeometry x="825" y="415" width="75" height="10" as="geometry" />
        </mxCell>
        <mxCell id="y9RaWsFI6EFHlhMd36S--27" value="" style="rounded=0;whiteSpace=wrap;html=1;fillColor=none;strokeColor=none;" vertex="1" parent="1">
          <mxGeometry x="680" y="430" width="220" height="20" as="geometry" />
        </mxCell>
        <mxCell id="y9RaWsFI6EFHlhMd36S--28" value="" style="endArrow=none;html=1;rounded=0;strokeWidth=2;" edge="1" parent="1" source="y9RaWsFI6EFHlhMd36S--27">
          <mxGeometry width="50" height="50" relative="1" as="geometry">
            <mxPoint x="720" y="500" as="sourcePoint" />
            <mxPoint x="660" y="440" as="targetPoint" />
          </mxGeometry>
        </mxCell>
        <mxCell id="y9RaWsFI6EFHlhMd36S--29" value="eSysState" style="text;html=1;align=left;verticalAlign=middle;whiteSpace=wrap;rounded=0;fontStyle=0;fontSize=10;" vertex="1" parent="1">
          <mxGeometry x="684" y="435" width="76" height="10" as="geometry" />
        </mxCell>
        <mxCell id="y9RaWsFI6EFHlhMd36S--30" value="" style="rounded=0;whiteSpace=wrap;html=1;fillColor=none;strokeColor=none;" vertex="1" parent="1">
          <mxGeometry x="680" y="450" width="220" height="20" as="geometry" />
        </mxCell>
        <mxCell id="y9RaWsFI6EFHlhMd36S--31" value="" style="endArrow=none;html=1;rounded=0;strokeWidth=2;" edge="1" parent="1" source="y9RaWsFI6EFHlhMd36S--30">
          <mxGeometry width="50" height="50" relative="1" as="geometry">
            <mxPoint x="720" y="520" as="sourcePoint" />
            <mxPoint x="660" y="460" as="targetPoint" />
          </mxGeometry>
        </mxCell>
        <mxCell id="y9RaWsFI6EFHlhMd36S--32" value="eObjectState" style="text;html=1;align=left;verticalAlign=middle;whiteSpace=wrap;rounded=0;fontStyle=0;fontSize=10;" vertex="1" parent="1">
          <mxGeometry x="684" y="455" width="76" height="10" as="geometry" />
        </mxCell>
        <mxCell id="y9RaWsFI6EFHlhMd36S--33" value="Prozessvariablen" style="text;html=1;align=left;verticalAlign=middle;whiteSpace=wrap;rounded=0;fontStyle=4" vertex="1" parent="1">
          <mxGeometry x="680" y="480" width="120" height="30" as="geometry" />
        </mxCell>
        <mxCell id="y9RaWsFI6EFHlhMd36S--34" style="edgeStyle=orthogonalEdgeStyle;rounded=0;orthogonalLoop=1;jettySize=auto;html=1;endArrow=none;endFill=0;strokeWidth=2;" edge="1" parent="1" source="y9RaWsFI6EFHlhMd36S--35">
          <mxGeometry relative="1" as="geometry">
            <mxPoint x="920" y="520" as="targetPoint" />
          </mxGeometry>
        </mxCell>
        <mxCell id="y9RaWsFI6EFHlhMd36S--35" value="" style="rounded=0;whiteSpace=wrap;html=1;fillColor=none;strokeColor=none;" vertex="1" parent="1">
          <mxGeometry x="680" y="510" width="220" height="20" as="geometry" />
        </mxCell>
        <mxCell id="y9RaWsFI6EFHlhMd36S--36" value="" style="endArrow=none;html=1;rounded=0;strokeWidth=2;" edge="1" parent="1" source="y9RaWsFI6EFHlhMd36S--35">
          <mxGeometry width="50" height="50" relative="1" as="geometry">
            <mxPoint x="720" y="580" as="sourcePoint" />
            <mxPoint x="660" y="520" as="targetPoint" />
          </mxGeometry>
        </mxCell>
        <mxCell id="y9RaWsFI6EFHlhMd36S--37" value="" style="rounded=0;whiteSpace=wrap;html=1;fillColor=#fff2cc;strokeColor=#d6b656;" vertex="1" parent="1">
          <mxGeometry x="670" y="580" width="240" height="60" as="geometry" />
        </mxCell>
        <mxCell id="y9RaWsFI6EFHlhMd36S--38" value="Eigenschaften" style="text;html=1;align=left;verticalAlign=middle;whiteSpace=wrap;rounded=0;fontStyle=4" vertex="1" parent="1">
          <mxGeometry x="680" y="580" width="120" height="30" as="geometry" />
        </mxCell>
        <mxCell id="y9RaWsFI6EFHlhMd36S--39" style="edgeStyle=orthogonalEdgeStyle;rounded=0;orthogonalLoop=1;jettySize=auto;html=1;endArrow=none;endFill=0;strokeWidth=2;" edge="1" parent="1" source="y9RaWsFI6EFHlhMd36S--40">
          <mxGeometry relative="1" as="geometry">
            <mxPoint x="920" y="620" as="targetPoint" />
          </mxGeometry>
        </mxCell>
        <mxCell id="y9RaWsFI6EFHlhMd36S--40" value="&lt;font style=&quot;font-size: 10px;&quot;&gt;P_State (GET)&lt;/font&gt;" style="rounded=0;whiteSpace=wrap;html=1;fillColor=#FFE599;strokeColor=#d6b656;fontSize=14;" vertex="1" parent="1">
          <mxGeometry x="680" y="610" width="220" height="20" as="geometry" />
        </mxCell>
        <mxCell id="y9RaWsFI6EFHlhMd36S--41" value="" style="endArrow=none;html=1;rounded=0;fillColor=#fff2cc;strokeColor=#d6b656;entryX=1;entryY=0.464;entryDx=0;entryDy=0;entryPerimeter=0;exitX=0;exitY=0.466;exitDx=0;exitDy=0;exitPerimeter=0;strokeWidth=1;dashed=1;" edge="1" parent="1">
          <mxGeometry width="50" height="50" relative="1" as="geometry">
            <mxPoint x="670" y="380.7800000000001" as="sourcePoint" />
            <mxPoint x="910" y="380.1200000000001" as="targetPoint" />
          </mxGeometry>
        </mxCell>
        <mxCell id="y9RaWsFI6EFHlhMd36S--42" value="" style="endArrow=none;html=1;rounded=0;fillColor=#fff2cc;strokeColor=#d6b656;exitX=0;exitY=0.792;exitDx=0;exitDy=0;exitPerimeter=0;strokeWidth=1;dashed=1;entryX=1;entryY=0.793;entryDx=0;entryDy=0;entryPerimeter=0;" edge="1" parent="1">
          <mxGeometry width="50" height="50" relative="1" as="geometry">
            <mxPoint x="670" y="480.3599999999999" as="sourcePoint" />
            <mxPoint x="910" y="480.69000000000005" as="targetPoint" />
          </mxGeometry>
        </mxCell>
        <mxCell id="y9RaWsFI6EFHlhMd36S--104" value="eProzessvariablen" style="text;html=1;align=left;verticalAlign=middle;whiteSpace=wrap;rounded=0;fontStyle=0;fontSize=10;" vertex="1" parent="1">
          <mxGeometry x="684" y="515" width="76" height="10" as="geometry" />
        </mxCell>
        <mxCell id="y9RaWsFI6EFHlhMd36S--105" value="eObjektvariablen" style="text;html=1;align=left;verticalAlign=middle;whiteSpace=wrap;rounded=0;fontStyle=0;fontSize=10;" vertex="1" parent="1">
          <mxGeometry x="820" y="515" width="76" height="10" as="geometry" />
        </mxCell>
        <mxCell id="y9RaWsFI6EFHlhMd36S--477" value="" style="rounded=0;whiteSpace=wrap;html=1;fillColor=none;strokeColor=none;" vertex="1" parent="1">
          <mxGeometry x="680" y="530" width="220" height="20" as="geometry" />
        </mxCell>
        <mxCell id="y9RaWsFI6EFHlhMd36S--478" value="" style="endArrow=none;html=1;rounded=0;strokeWidth=2;" edge="1" parent="1" source="y9RaWsFI6EFHlhMd36S--477">
          <mxGeometry width="50" height="50" relative="1" as="geometry">
            <mxPoint x="720" y="600" as="sourcePoint" />
            <mxPoint x="660" y="540" as="targetPoint" />
          </mxGeometry>
        </mxCell>
        <mxCell id="y9RaWsFI6EFHlhMd36S--479" value="bLimit" style="text;html=1;align=left;verticalAlign=middle;whiteSpace=wrap;rounded=0;fontStyle=0;fontSize=10;" vertex="1" parent="1">
          <mxGeometry x="684" y="535" width="76" height="10" as="geometry" />
        </mxCell>
        <mxCell id="y9RaWsFI6EFHlhMd36S--482" value="" style="rounded=0;whiteSpace=wrap;html=1;fillColor=none;strokeColor=none;" vertex="1" parent="1">
          <mxGeometry x="680" y="550" width="220" height="20" as="geometry" />
        </mxCell>
        <mxCell id="y9RaWsFI6EFHlhMd36S--483" value="" style="endArrow=none;html=1;rounded=0;strokeWidth=2;" edge="1" parent="1" source="y9RaWsFI6EFHlhMd36S--482">
          <mxGeometry width="50" height="50" relative="1" as="geometry">
            <mxPoint x="720" y="620" as="sourcePoint" />
            <mxPoint x="660" y="560" as="targetPoint" />
          </mxGeometry>
        </mxCell>
        <mxCell id="y9RaWsFI6EFHlhMd36S--484" value="bErreicht" style="text;html=1;align=left;verticalAlign=middle;whiteSpace=wrap;rounded=0;fontStyle=0;fontSize=10;" vertex="1" parent="1">
          <mxGeometry x="684" y="555" width="76" height="10" as="geometry" />
        </mxCell>
        <mxCell id="y9RaWsFI6EFHlhMd36S--487" value="" style="endArrow=none;html=1;rounded=0;strokeWidth=2;edgeStyle=orthogonalEdgeStyle;" edge="1" parent="1">
          <mxGeometry width="50" height="50" relative="1" as="geometry">
            <mxPoint x="1170" y="879" as="sourcePoint" />
            <mxPoint x="920" y="420" as="targetPoint" />
            <Array as="points">
              <mxPoint x="990" y="879" />
              <mxPoint x="990" y="809" />
              <mxPoint x="1130" y="809" />
              <mxPoint x="1130" y="420" />
              <mxPoint x="920" y="420" />
            </Array>
          </mxGeometry>
        </mxCell>
        <mxCell id="y9RaWsFI6EFHlhMd36S--489" value="" style="endArrow=none;html=1;rounded=0;strokeWidth=2;edgeStyle=orthogonalEdgeStyle;" edge="1" parent="1">
          <mxGeometry width="50" height="50" relative="1" as="geometry">
            <mxPoint x="1170" y="940" as="sourcePoint" />
            <mxPoint x="920" y="520" as="targetPoint" />
            <Array as="points">
              <mxPoint x="1130" y="940" />
              <mxPoint x="1130" y="900" />
              <mxPoint x="970" y="900" />
              <mxPoint x="970" y="790" />
              <mxPoint x="1110" y="790" />
              <mxPoint x="1110" y="520" />
            </Array>
          </mxGeometry>
        </mxCell>
        <mxCell id="y9RaWsFI6EFHlhMd36S--490" value="" style="endArrow=none;html=1;rounded=0;strokeWidth=2;edgeStyle=orthogonalEdgeStyle;" edge="1" parent="1">
          <mxGeometry width="50" height="50" relative="1" as="geometry">
            <mxPoint x="920" y="1010" as="sourcePoint" />
            <mxPoint x="660" y="560" as="targetPoint" />
            <Array as="points">
              <mxPoint x="960" y="1010" />
              <mxPoint x="960" y="1120" />
              <mxPoint x="460" y="1120" />
              <mxPoint x="460" y="560" />
              <mxPoint x="660" y="560" />
            </Array>
          </mxGeometry>
        </mxCell>
        <mxCell id="y9RaWsFI6EFHlhMd36S--491" value="" style="endArrow=none;html=1;rounded=0;strokeWidth=2;edgeStyle=orthogonalEdgeStyle;" edge="1" parent="1">
          <mxGeometry width="50" height="50" relative="1" as="geometry">
            <mxPoint x="920" y="980" as="sourcePoint" />
            <mxPoint x="660" y="540" as="targetPoint" />
            <Array as="points">
              <mxPoint x="980" y="980" />
              <mxPoint x="980" y="1140" />
              <mxPoint x="440" y="1140" />
              <mxPoint x="440" y="540" />
              <mxPoint x="660" y="540" />
            </Array>
          </mxGeometry>
        </mxCell>
        <mxCell id="y9RaWsFI6EFHlhMd36S--505" value="" style="rounded=0;whiteSpace=wrap;html=1;strokeColor=#000000;strokeWidth=2;" vertex="1" parent="1">
          <mxGeometry x="1180" y="210" width="440" height="420" as="geometry" />
        </mxCell>
        <mxCell id="y9RaWsFI6EFHlhMd36S--499" style="edgeStyle=orthogonalEdgeStyle;rounded=0;orthogonalLoop=1;jettySize=auto;html=1;entryX=0.5;entryY=0;entryDx=0;entryDy=0;strokeWidth=2;" edge="1" parent="1" source="y9RaWsFI6EFHlhMd36S--494" target="y9RaWsFI6EFHlhMd36S--495">
          <mxGeometry relative="1" as="geometry" />
        </mxCell>
        <mxCell id="y9RaWsFI6EFHlhMd36S--494" value="INIT" style="rounded=0;whiteSpace=wrap;html=1;fillColor=#f5f5f5;strokeColor=#666666;fontColor=#333333;" vertex="1" parent="1">
          <mxGeometry x="1210" y="275" width="110" height="30" as="geometry" />
        </mxCell>
        <mxCell id="y9RaWsFI6EFHlhMd36S--500" style="edgeStyle=orthogonalEdgeStyle;rounded=0;orthogonalLoop=1;jettySize=auto;html=1;entryX=0.5;entryY=0;entryDx=0;entryDy=0;strokeWidth=2;" edge="1" parent="1" source="y9RaWsFI6EFHlhMd36S--495" target="y9RaWsFI6EFHlhMd36S--497">
          <mxGeometry relative="1" as="geometry" />
        </mxCell>
        <mxCell id="y9RaWsFI6EFHlhMd36S--501" style="edgeStyle=orthogonalEdgeStyle;rounded=0;orthogonalLoop=1;jettySize=auto;html=1;entryX=0.5;entryY=0;entryDx=0;entryDy=0;strokeWidth=2;" edge="1" parent="1" source="y9RaWsFI6EFHlhMd36S--495" target="y9RaWsFI6EFHlhMd36S--496">
          <mxGeometry relative="1" as="geometry" />
        </mxCell>
        <mxCell id="y9RaWsFI6EFHlhMd36S--495" value="SCHRITT 1" style="rounded=0;whiteSpace=wrap;html=1;fillColor=#f5f5f5;strokeColor=#666666;fontColor=#333333;" vertex="1" parent="1">
          <mxGeometry x="1210" y="345" width="110" height="30" as="geometry" />
        </mxCell>
        <mxCell id="y9RaWsFI6EFHlhMd36S--502" style="edgeStyle=orthogonalEdgeStyle;rounded=0;orthogonalLoop=1;jettySize=auto;html=1;entryX=0.5;entryY=0;entryDx=0;entryDy=0;strokeWidth=2;" edge="1" parent="1" source="y9RaWsFI6EFHlhMd36S--496" target="y9RaWsFI6EFHlhMd36S--498">
          <mxGeometry relative="1" as="geometry" />
        </mxCell>
        <mxCell id="y9RaWsFI6EFHlhMd36S--496" value="SCHRITT 3" style="rounded=0;whiteSpace=wrap;html=1;fillColor=#f5f5f5;strokeColor=#666666;fontColor=#333333;" vertex="1" parent="1">
          <mxGeometry x="1210" y="475" width="110" height="30" as="geometry" />
        </mxCell>
        <mxCell id="y9RaWsFI6EFHlhMd36S--504" style="edgeStyle=orthogonalEdgeStyle;rounded=0;orthogonalLoop=1;jettySize=auto;html=1;entryX=1;entryY=0.5;entryDx=0;entryDy=0;strokeWidth=2;" edge="1" parent="1" source="y9RaWsFI6EFHlhMd36S--497" target="y9RaWsFI6EFHlhMd36S--496">
          <mxGeometry relative="1" as="geometry">
            <Array as="points">
              <mxPoint x="1415" y="490" />
            </Array>
          </mxGeometry>
        </mxCell>
        <mxCell id="y9RaWsFI6EFHlhMd36S--497" value="SCHRITT 2" style="rounded=0;whiteSpace=wrap;html=1;fillColor=#f5f5f5;strokeColor=#666666;fontColor=#333333;" vertex="1" parent="1">
          <mxGeometry x="1360" y="410" width="110" height="30" as="geometry" />
        </mxCell>
        <mxCell id="y9RaWsFI6EFHlhMd36S--503" style="edgeStyle=orthogonalEdgeStyle;rounded=0;orthogonalLoop=1;jettySize=auto;html=1;strokeWidth=2;" edge="1" parent="1" source="y9RaWsFI6EFHlhMd36S--498">
          <mxGeometry relative="1" as="geometry">
            <mxPoint x="1300" y="605" as="targetPoint" />
            <Array as="points">
              <mxPoint x="1265" y="605" />
              <mxPoint x="1300" y="605" />
            </Array>
          </mxGeometry>
        </mxCell>
        <mxCell id="y9RaWsFI6EFHlhMd36S--498" value="FINISHED" style="rounded=0;whiteSpace=wrap;html=1;fillColor=#f5f5f5;strokeColor=#666666;fontColor=#333333;" vertex="1" parent="1">
          <mxGeometry x="1210" y="545" width="110" height="30" as="geometry" />
        </mxCell>
        <mxCell id="y9RaWsFI6EFHlhMd36S--506" value="Ablauf in Form eines Flussdiagramms" style="rounded=0;whiteSpace=wrap;html=1;fillColor=#f5f5f5;fontColor=#333333;strokeColor=#000000;strokeWidth=2;fontStyle=1" vertex="1" parent="1">
          <mxGeometry x="1180" y="210" width="440" height="30" as="geometry" />
        </mxCell>
        <mxCell id="y9RaWsFI6EFHlhMd36S--507" value="bDone" style="text;html=1;align=left;verticalAlign=middle;whiteSpace=wrap;rounded=0;fontStyle=0;fontSize=10;" vertex="1" parent="1">
          <mxGeometry x="1270" y="415" width="40" height="10" as="geometry" />
        </mxCell>
        <mxCell id="y9RaWsFI6EFHlhMd36S--508" value="bLimit" style="text;html=1;align=left;verticalAlign=middle;whiteSpace=wrap;rounded=0;fontStyle=0;fontSize=10;" vertex="1" parent="1">
          <mxGeometry x="1350" y="345" width="40" height="10" as="geometry" />
        </mxCell>
        <mxCell id="y9RaWsFI6EFHlhMd36S--512" value="bDone" style="text;html=1;align=left;verticalAlign=middle;whiteSpace=wrap;rounded=0;fontStyle=0;fontSize=10;" vertex="1" parent="1">
          <mxGeometry x="1350" y="475" width="40" height="10" as="geometry" />
        </mxCell>
        <mxCell id="y9RaWsFI6EFHlhMd36S--513" value="START" style="text;html=1;align=left;verticalAlign=middle;whiteSpace=wrap;rounded=0;fontStyle=0;fontSize=10;" vertex="1" parent="1">
          <mxGeometry x="1270" y="315" width="40" height="10" as="geometry" />
        </mxCell>
        <mxCell id="y9RaWsFI6EFHlhMd36S--515" value="bDone" style="text;html=1;align=left;verticalAlign=middle;whiteSpace=wrap;rounded=0;fontStyle=0;fontSize=10;" vertex="1" parent="1">
          <mxGeometry x="1270" y="520" width="40" height="10" as="geometry" />
        </mxCell>
      </root>
    </mxGraphModel>
  </diagram>
</mxfile>
